<svg width="27" height="26" viewBox="0 0 27 26" fill="none" xmlns="http://www.w3.org/2000/svg">
<g id="mi:email">
<path id="Vector" d="M2.53882 6.51709C2.53882 5.94397 2.76649 5.39432 3.17175 4.98907C3.577 4.58381 4.12665 4.35614 4.69977 4.35614H21.9873C22.5605 4.35614 23.1101 4.58381 23.5154 4.98907C23.9206 5.39432 24.1483 5.94397 24.1483 6.51709V19.4828C24.1483 20.0559 23.9206 20.6055 23.5154 21.0108C23.1101 21.416 22.5605 21.6437 21.9873 21.6437H4.69977C4.12665 21.6437 3.577 21.416 3.17175 21.0108C2.76649 20.6055 2.53882 20.0559 2.53882 19.4828V6.51709ZM6.34101 6.51709L13.3436 12.6445L20.3461 6.51709H6.34101ZM21.9873 7.95304L14.0556 14.894C13.8586 15.0666 13.6055 15.1618 13.3436 15.1618C13.0816 15.1618 12.8286 15.0666 12.6315 14.894L4.69977 7.95304V19.4828H21.9873V7.95304Z" fill="white"/>
</g>
</svg>
